<svg width="724" height="177" viewBox="0 0 724 177" fill="none" xmlns="http://www.w3.org/2000/svg">
<path d="M110.824 20.3651C106.334 7.19864 89.4461 12.6086 79.4117 10.829C71.1061 9.35704 63.6343 3.22506 55.349 1.08192C39.6886 -2.97047 17.1055 4.70467 8.26348 18.3592C-0.746361 32.2706 -1.65904 52.1207 2.03998 67.8269C3.4001 73.6004 6.55506 78.7587 7.96603 84.5398C10.5719 95.2225 11.6218 108.979 11.0549 119.969C10.5286 130.164 -1.82937 146.48 4.21108 156.064C7.75502 161.69 15.5064 164.591 21.2647 167.283C36.8794 174.585 53.6203 177.005 70.6103 177C76.9304 176.997 88.8232 174.984 93.9027 170.776C96.5517 168.582 95.9289 163.813 96.3102 160.745C97.3221 152.627 97.3678 142.534 101.527 135.342C111.889 117.427 125.005 101.06 136.529 83.8712C141.769 76.0537 149.024 67.1507 151.239 57.8002C153.542 48.0607 152.642 32.6875 145.325 25.2692C136.72 16.5491 123.167 16.872 112.377 20.0677M72.728 12.3417C59.6989 16.3966 50.6941 36.2442 50.6712 49.1081C50.5162 53.2419 49.0671 60.7873 53.3457 63.1466C51.4746 48.3454 54.4033 26.2047 68.1621 17.1186C77.6448 10.8595 99.1932 9.82481 107.222 19.0965C112.202 24.8522 112.24 33.9104 111.368 41.0872C109.95 52.7944 100.037 60.4899 95.4509 70.5014C103.815 68.1472 113.412 49.5047 113.849 41.0872C114.292 32.6265 110.267 23.8353 120.848 20.9854C142.01 15.2856 149.497 34.7214 148.674 51.4928C147.761 57.7264 144.278 67.0846 140.864 72.5072C133.214 84.6466 125.704 97.8233 116.204 108.605C113.173 112.042 104.148 126.991 98.5373 120.226C96.6178 117.912 99.1067 114.666 100.337 112.614C104.575 105.542 109.39 99.0842 113.496 91.8921C105.284 95.9318 103.467 109.462 94.7823 114.615C90.2316 117.315 81.1913 113.308 80.2913 107.926C79.3736 102.422 82.7497 95.1411 85.4267 90.5549C79.427 94.9861 80.9421 103.414 75.8093 107.438C73.1196 109.548 68.213 107.969 65.3046 107.245C62.1776 106.47 57.3498 106.111 55.0846 103.582C53.4016 101.703 54.0169 98.2224 54.0143 95.9038C54.0042 90.6947 53.3355 85.5466 52.0085 80.5281C52.0085 80.5281 53.5059 97.4038 50.0992 101.708C46.868 105.783 33.6583 104.509 32.6439 99.9003L31.2889 84.5398C29.5296 89.3651 31.0575 94.5615 29.3034 99.2317C28.2458 102.051 22.218 106.007 20.3291 101.81C18.6258 98.0165 19.5868 91.3887 19.1902 87.2118C18.636 81.3874 16.7242 74.8639 15.2497 69.1641C15.2497 69.1641 17.1513 86.8482 17.2504 95.2352C17.2937 98.8808 16.1979 107.021 13.6912 103.261C10.9125 96.0462 11.7794 91.7192 9.96935 84.3085C8.61177 78.7485 5.62459 72.009 4.206 66.4897C0.486644 52.019 1.9815 34.818 9.45835 21.6998C19.091 4.80127 45.0579 -1.85696 62.0327 6.15631C65.5639 7.8215 70.5163 8.96552 72.728 12.3417ZM30.6203 39.0814L31.1414 39.9686C31.9296 30.0512 38.2395 16.8542 48.6654 14.3475C38.3819 10.0714 27.1984 30.8062 30.6203 39.0814ZM128.201 31.7265C130.415 37.1263 132.576 42.0863 131.45 48.1014C131.023 52.8961 127.936 58.4154 126.863 63.1466C133.877 57.312 137.175 37.7263 128.201 31.7265ZM94.1137 164.088C69.1333 150.942 33.0456 144.024 5.22291 151.387C5.69832 140.956 12.3565 131.755 13.1802 121.304C13.4599 117.767 12.2828 111.249 14.9776 108.404C19.1063 104.042 29.1864 105.198 34.632 105.265C52.5627 105.476 72.3009 108.821 88.0987 117.678C92.118 119.931 98.4839 121.977 101.052 126.012C103.34 129.602 98.8601 133.98 97.6958 137.348C95.0187 145.107 94.1188 155.869 94.1137 164.088ZM88.3427 164.911C91.5816 166.963 93.6205 168.616 90.8011 170.324C74.2966 178.154 54.7719 174.211 37.9725 168.219C33.6456 166.673 21.1833 163.572 21.6282 157.432C22.1011 150.949 32.8397 151.984 36.9429 151.984C54.8075 152.724 72.0493 156.08 88.3427 164.911Z" fill="black"/>
<path d="M17.663 124.669C17.8664 123.119 18.385 121.776 19.2189 120.642C20.0527 119.511 21.1129 118.685 22.4018 118.161C23.6882 117.632 25.0915 117.467 26.6118 117.663C28.4829 117.902 30.021 118.598 31.2286 119.758C32.4336 120.912 33.1531 122.369 33.3844 124.13L29.1643 123.592C28.9329 122.895 28.549 122.338 28.0152 121.924C27.4864 121.504 26.8559 121.248 26.1237 121.151C24.9441 121.003 23.9323 121.293 23.0933 122.025C22.2518 122.753 21.7433 123.8 21.5679 125.168C21.39 126.551 21.6188 127.7 22.2493 128.615C22.8797 129.53 23.7848 130.064 24.9644 130.212C25.6966 130.308 26.3703 130.222 26.9881 129.957C27.6109 129.688 28.1219 129.24 28.5236 128.615L32.7438 129.154C32.0726 130.801 31.0074 132.029 29.5507 132.835C28.099 133.649 26.4389 133.936 24.5678 133.7C23.0475 133.501 21.7306 132.99 20.612 132.164C19.4934 131.33 18.6723 130.262 18.1511 128.961C17.6274 127.654 17.4647 126.223 17.663 124.669Z" fill="black"/>
<path d="M56.1557 122.227L53.6338 137.898L49.8203 137.288L50.8576 130.83L44.9087 129.864L43.8714 136.322L40.058 135.712L42.5799 120.041L46.3933 120.651L45.4069 126.783L51.3559 127.749L52.3423 121.617L56.1557 122.227Z" fill="black"/>
<path d="M68.2238 127.574L67.6238 130.736L72.7083 131.712L72.149 134.651L67.0645 133.675L66.4035 137.082L72.1592 138.18L71.5796 141.231L62.0308 139.41L65.0103 123.821L74.5591 125.641L73.9795 128.672L68.2238 127.574Z" fill="black"/>
<path d="M93.1639 129.594L92.5029 132.614L86.1879 131.241L85.476 134.516L90.2047 135.543L89.564 138.482L84.8354 137.455L83.4626 143.729L79.6898 142.895L83.0761 127.387L93.1639 129.594Z" fill="black"/>
<path d="M180.68 67.1818L201.407 125.955H202.225L222.952 67.1818H231.816L206.18 137H197.452L171.816 67.1818H180.68ZM241.6 137V84.6364H249.646V137H241.6ZM245.691 75.9091C244.123 75.9091 242.771 75.375 241.634 74.3068C240.521 73.2386 239.964 71.9545 239.964 70.4545C239.964 68.9545 240.521 67.6705 241.634 66.6023C242.771 65.5341 244.123 65 245.691 65C247.259 65 248.6 65.5341 249.714 66.6023C250.85 67.6705 251.418 68.9545 251.418 70.4545C251.418 71.9545 250.85 73.2386 249.714 74.3068C248.6 75.375 247.259 75.9091 245.691 75.9091ZM264.381 137V84.6364H272.154V92.5455H272.7C273.654 89.9545 275.381 87.8523 277.881 86.2386C280.381 84.625 283.2 83.8182 286.336 83.8182C286.927 83.8182 287.666 83.8295 288.552 83.8523C289.438 83.875 290.109 83.9091 290.563 83.9545V92.1364C290.291 92.0682 289.666 91.9659 288.688 91.8295C287.734 91.6705 286.722 91.5909 285.654 91.5909C283.109 91.5909 280.836 92.125 278.836 93.1932C276.859 94.2386 275.291 95.6932 274.131 97.5568C272.995 99.3977 272.427 101.5 272.427 103.864V137H264.381ZM326.154 84.6364V91.4545H299.018V84.6364H326.154ZM306.927 72.0909H314.972V122C314.972 124.273 315.302 125.977 315.961 127.114C316.643 128.227 317.506 128.977 318.552 129.364C319.62 129.727 320.745 129.909 321.927 129.909C322.813 129.909 323.541 129.864 324.109 129.773C324.677 129.659 325.131 129.568 325.472 129.5L327.109 136.727C326.563 136.932 325.802 137.136 324.825 137.341C323.847 137.568 322.609 137.682 321.109 137.682C318.836 137.682 316.609 137.193 314.427 136.216C312.268 135.239 310.472 133.75 309.041 131.75C307.631 129.75 306.927 127.227 306.927 124.182V72.0909ZM371.256 115.591V84.6364H379.302V137H371.256V128.136H370.711C369.484 130.795 367.575 133.057 364.984 134.92C362.393 136.761 359.12 137.682 355.166 137.682C351.893 137.682 348.984 136.966 346.438 135.534C343.893 134.08 341.893 131.898 340.438 128.989C338.984 126.057 338.256 122.364 338.256 117.909V84.6364H346.302V117.364C346.302 121.182 347.37 124.227 349.506 126.5C351.666 128.773 354.416 129.909 357.756 129.909C359.756 129.909 361.791 129.398 363.859 128.375C365.95 127.352 367.7 125.784 369.109 123.67C370.541 121.557 371.256 118.864 371.256 115.591ZM409.447 138.227C406.129 138.227 403.117 137.602 400.413 136.352C397.708 135.08 395.56 133.25 393.97 130.864C392.379 128.455 391.583 125.545 391.583 122.136C391.583 119.136 392.174 116.705 393.356 114.841C394.538 112.955 396.117 111.477 398.095 110.409C400.072 109.341 402.254 108.545 404.64 108.023C407.049 107.477 409.47 107.045 411.901 106.727C415.083 106.318 417.663 106.011 419.64 105.807C421.64 105.58 423.095 105.205 424.004 104.682C424.935 104.159 425.401 103.25 425.401 101.955V101.682C425.401 98.3182 424.481 95.7045 422.64 93.8409C420.822 91.9773 418.06 91.0455 414.356 91.0455C410.515 91.0455 407.504 91.8864 405.322 93.5682C403.14 95.25 401.606 97.0455 400.72 98.9545L393.083 96.2273C394.447 93.0455 396.265 90.5682 398.538 88.7955C400.833 87 403.333 85.75 406.038 85.0455C408.765 84.3182 411.447 83.9545 414.083 83.9545C415.765 83.9545 417.697 84.1591 419.879 84.5682C422.083 84.9545 424.208 85.7614 426.254 86.9886C428.322 88.2159 430.038 90.0682 431.401 92.5455C432.765 95.0227 433.447 98.3409 433.447 102.5V137H425.401V129.909H424.992C424.447 131.045 423.538 132.261 422.265 133.557C420.992 134.852 419.299 135.955 417.185 136.864C415.072 137.773 412.492 138.227 409.447 138.227ZM410.674 131C413.856 131 416.538 130.375 418.72 129.125C420.924 127.875 422.583 126.261 423.697 124.284C424.833 122.307 425.401 120.227 425.401 118.045V110.682C425.06 111.091 424.31 111.466 423.151 111.807C422.015 112.125 420.697 112.409 419.197 112.659C417.72 112.886 416.276 113.091 414.867 113.273C413.481 113.432 412.356 113.568 411.492 113.682C409.401 113.955 407.447 114.398 405.629 115.011C403.833 115.602 402.379 116.5 401.265 117.705C400.174 118.886 399.629 120.5 399.629 122.545C399.629 125.341 400.663 127.455 402.731 128.886C404.822 130.295 407.47 131 410.674 131ZM456.177 67.1818V137H448.131V67.1818H456.177ZM519.185 138.091C514.276 138.091 510.049 136.932 506.504 134.614C502.958 132.295 500.231 129.102 498.322 125.034C496.413 120.966 495.458 116.318 495.458 111.091C495.458 105.773 496.435 101.08 498.39 97.0114C500.367 92.9205 503.117 89.7273 506.64 87.4318C510.185 85.1136 514.322 83.9545 519.049 83.9545C522.731 83.9545 526.049 84.6364 529.004 86C531.958 87.3636 534.379 89.2727 536.265 91.7273C538.151 94.1818 539.322 97.0455 539.776 100.318H531.731C531.117 97.9318 529.754 95.8182 527.64 93.9773C525.549 92.1136 522.731 91.1818 519.185 91.1818C516.049 91.1818 513.299 92 510.935 93.6364C508.595 95.25 506.765 97.5341 505.447 100.489C504.151 103.42 503.504 106.864 503.504 110.818C503.504 114.864 504.14 118.386 505.413 121.386C506.708 124.386 508.526 126.716 510.867 128.375C513.231 130.034 516.004 130.864 519.185 130.864C521.276 130.864 523.174 130.5 524.879 129.773C526.583 129.045 528.026 128 529.208 126.636C530.39 125.273 531.231 123.636 531.731 121.727H539.776C539.322 124.818 538.197 127.602 536.401 130.08C534.629 132.534 532.276 134.489 529.345 135.943C526.435 137.375 523.049 138.091 519.185 138.091ZM559.583 105.5V137H551.538V67.1818H559.583V92.8182H560.265C561.492 90.1136 563.333 87.9659 565.788 86.375C568.265 84.7614 571.56 83.9545 575.674 83.9545C579.242 83.9545 582.367 84.6705 585.049 86.1023C587.731 87.5114 589.81 89.6818 591.288 92.6136C592.788 95.5227 593.538 99.2273 593.538 103.727V137H585.492V104.273C585.492 100.114 584.413 96.8977 582.254 94.625C580.117 92.3295 577.151 91.1818 573.356 91.1818C570.72 91.1818 568.356 91.7386 566.265 92.8523C564.197 93.9659 562.56 95.5909 561.356 97.7273C560.174 99.8636 559.583 102.455 559.583 105.5ZM630.211 138.091C625.166 138.091 620.813 136.977 617.154 134.75C613.518 132.5 610.711 129.364 608.734 125.341C606.779 121.295 605.802 116.591 605.802 111.227C605.802 105.864 606.779 101.136 608.734 97.0455C610.711 92.9318 613.461 89.7273 616.984 87.4318C620.529 85.1136 624.666 83.9545 629.393 83.9545C632.12 83.9545 634.813 84.4091 637.472 85.3182C640.131 86.2273 642.552 87.7045 644.734 89.75C646.916 91.7727 648.654 94.4545 649.95 97.7955C651.245 101.136 651.893 105.25 651.893 110.136V113.545H611.529V106.591H643.711C643.711 103.636 643.12 101 641.938 98.6818C640.779 96.3636 639.12 94.5341 636.961 93.1932C634.825 91.8523 632.302 91.1818 629.393 91.1818C626.188 91.1818 623.416 91.9773 621.075 93.5682C618.756 95.1364 616.972 97.1818 615.722 99.7045C614.472 102.227 613.847 104.932 613.847 107.818V112.455C613.847 116.409 614.529 119.761 615.893 122.511C617.279 125.239 619.2 127.318 621.654 128.75C624.109 130.159 626.961 130.864 630.211 130.864C632.325 130.864 634.234 130.568 635.938 129.977C637.666 129.364 639.154 128.455 640.404 127.25C641.654 126.023 642.62 124.5 643.302 122.682L651.075 124.864C650.256 127.5 648.881 129.818 646.95 131.818C645.018 133.795 642.631 135.341 639.791 136.455C636.95 137.545 633.756 138.091 630.211 138.091ZM687.45 84.6364V91.4545H659.222V84.6364H687.45ZM667.677 137V77.4091C667.677 74.4091 668.381 71.9091 669.791 69.9091C671.2 67.9091 673.029 66.4091 675.279 65.4091C677.529 64.4091 679.904 63.9091 682.404 63.9091C684.381 63.9091 685.995 64.0682 687.245 64.3864C688.495 64.7045 689.427 65 690.041 65.2727L687.722 72.2273C687.313 72.0909 686.745 71.9205 686.018 71.7159C685.313 71.5114 684.381 71.4091 683.222 71.4091C680.563 71.4091 678.643 72.0795 677.461 73.4205C676.302 74.7614 675.722 76.7273 675.722 79.3182V137H667.677Z" fill="black"/>
</svg>
